<svg width="72" height="72" viewBox="0 0 72 72" fill="none" xmlns="http://www.w3.org/2000/svg">
<path fill-rule="evenodd" clip-rule="evenodd" d="M46.6101 12.3542C47.2954 9.22931 51.7531 9.20986 52.4656 12.3286L52.4986 12.4732C52.5205 12.5705 52.5418 12.6627 52.5638 12.7564C53.3612 16.1463 56.1095 18.7366 59.5503 19.3341C62.8166 19.9013 62.8166 24.5816 59.5503 25.1489C56.0913 25.7495 53.3316 28.3643 52.5509 31.7809L52.4656 32.1543C51.7531 35.2731 47.2954 35.2536 46.6101 32.1288L46.5398 31.8084C45.7878 28.3793 43.032 25.7452 39.5673 25.1436C36.3068 24.5774 36.3068 19.9056 39.5673 19.3394C43.02 18.7398 45.7686 16.1219 46.5319 12.7104L46.5836 12.4751L46.6101 12.3542ZM38.8957 28.9962C33.8079 28.1127 32.1311 22.9338 33.8655 19.2191C33.7248 19.0804 33.5715 18.9536 33.407 18.8406C32.8475 18.4563 32.1847 18.2496 31.5054 18.2475H28.7405C28.0613 18.2496 27.3985 18.4563 26.839 18.8406C26.2794 19.225 25.8492 19.769 25.6047 20.4015L24.1548 24.1373L19.1645 26.9644L15.1857 26.3586C14.5232 26.2688 13.8489 26.3777 13.2485 26.6713C12.6481 26.965 12.1487 27.4301 11.8138 28.0077L10.4651 30.3636C10.1195 30.9504 9.96026 31.628 10.0084 32.307C10.0566 32.9859 10.3099 33.6344 10.7349 34.1667L13.2637 37.2967V42.9508L10.8023 46.0808C10.3773 46.6131 10.124 47.2616 10.0759 47.9406C10.0277 48.6196 10.1869 49.2971 10.5325 49.8837L11.8813 52.2398C12.2162 52.8173 12.7156 53.2825 13.316 53.5762C13.9163 53.8699 14.5906 53.9789 15.2531 53.8888L19.2319 53.2832L24.1548 56.1101L25.6047 59.8461C25.8492 60.4785 26.2794 61.0228 26.839 61.4069C27.3985 61.7911 28.0613 61.9981 28.7405 62H31.5729C32.2521 61.9981 32.9149 61.7911 33.4744 61.4069C34.034 61.0228 34.4642 60.4785 34.7087 59.8461L36.1586 56.1101L41.0815 53.2832L45.0603 53.8888C45.7228 53.9789 46.3971 53.8699 46.9974 53.5762C47.598 53.2825 48.0974 52.8173 48.4322 52.2398L49.7809 49.8837C50.1264 49.2971 50.2856 48.6196 50.2375 47.9406C50.1893 47.2616 49.936 46.6131 49.511 46.0808L46.9822 42.9508V37.9294C45.0029 37.1803 43.3441 35.5243 42.7829 32.965L42.7126 32.6446C42.3009 30.7675 40.7924 29.3255 38.8957 28.9962ZM30.123 47.1554C34.0137 47.1554 37.1677 44.0072 37.1677 40.1238C37.1677 36.2403 34.0137 33.0921 30.123 33.0921C26.2323 33.0921 23.0782 36.2403 23.0782 40.1238C23.0782 44.0072 26.2323 47.1554 30.123 47.1554Z" fill="#222222"/>
</svg>
