<svg width="33" height="33" viewBox="0 0 33 33" fill="none" xmlns="http://www.w3.org/2000/svg">
<rect x="1" y="0.729553" width="31" height="31" rx="4.5" fill="white"/>
<rect x="1" y="0.729553" width="31" height="31" rx="4.5" stroke="#EDEBEB"/>
<path d="M14.5 9.72955H18.5C18.5 9.19912 18.2893 8.69041 17.9142 8.31534C17.5391 7.94027 17.0304 7.72955 16.5 7.72955C15.9696 7.72955 15.4609 7.94027 15.0858 8.31534C14.7107 8.69041 14.5 9.19912 14.5 9.72955ZM13 9.72955C13 9.26993 13.0905 8.8148 13.2664 8.39016C13.4423 7.96552 13.7001 7.57968 14.0251 7.25468C14.3501 6.92967 14.736 6.67187 15.1606 6.49597C15.5852 6.32008 16.0404 6.22955 16.5 6.22955C16.9596 6.22955 17.4148 6.32008 17.8394 6.49597C18.264 6.67187 18.6499 6.92967 18.9749 7.25468C19.2999 7.57968 19.5577 7.96552 19.7336 8.39016C19.9095 8.8148 20 9.26993 20 9.72955H25.75C25.9489 9.72955 26.1397 9.80857 26.2803 9.94922C26.421 10.0899 26.5 10.2806 26.5 10.4796C26.5 10.6785 26.421 10.8692 26.2803 11.0099C26.1397 11.1505 25.9489 11.2296 25.75 11.2296H24.43L23.26 23.3406C23.1702 24.2685 22.738 25.1298 22.0477 25.7564C21.3573 26.383 20.4583 26.7299 19.526 26.7296H13.474C12.5419 26.7297 11.6431 26.3826 10.9529 25.756C10.2628 25.1295 9.83073 24.2684 9.741 23.3406L8.57 11.2296H7.25C7.05109 11.2296 6.86032 11.1505 6.71967 11.0099C6.57902 10.8692 6.5 10.6785 6.5 10.4796C6.5 10.2806 6.57902 10.0899 6.71967 9.94922C6.86032 9.80857 7.05109 9.72955 7.25 9.72955H13ZM15 14.4796C15 14.2806 14.921 14.0899 14.7803 13.9492C14.6397 13.8086 14.4489 13.7296 14.25 13.7296C14.0511 13.7296 13.8603 13.8086 13.7197 13.9492C13.579 14.0899 13.5 14.2806 13.5 14.4796V21.9796C13.5 22.1785 13.579 22.3692 13.7197 22.5099C13.8603 22.6505 14.0511 22.7296 14.25 22.7296C14.4489 22.7296 14.6397 22.6505 14.7803 22.5099C14.921 22.3692 15 22.1785 15 21.9796V14.4796ZM18.75 13.7296C18.5511 13.7296 18.3603 13.8086 18.2197 13.9492C18.079 14.0899 18 14.2806 18 14.4796V21.9796C18 22.1785 18.079 22.3692 18.2197 22.5099C18.3603 22.6505 18.5511 22.7296 18.75 22.7296C18.9489 22.7296 19.1397 22.6505 19.2803 22.5099C19.421 22.3692 19.5 22.1785 19.5 21.9796V14.4796C19.5 14.2806 19.421 14.0899 19.2803 13.9492C19.1397 13.8086 18.9489 13.7296 18.75 13.7296Z" fill="black"/>
</svg>
