<svg width="33" height="33" viewBox="0 0 33 33" fill="none" xmlns="http://www.w3.org/2000/svg">
<rect x="1" y="0.729553" width="31" height="31" rx="4.5" fill="white"/>
<rect x="1" y="0.729553" width="31" height="31" rx="4.5" stroke="#EDEBEB"/>
<path d="M10.5 11.2297H9.5C8.96957 11.2297 8.46086 11.4404 8.08579 11.8155C7.71071 12.1905 7.5 12.6992 7.5 13.2297V22.2297C7.5 22.7601 7.71071 23.2688 8.08579 23.6439C8.46086 24.019 8.96957 24.2297 9.5 24.2297H18.5C19.0304 24.2297 19.5391 24.019 19.9142 23.6439C20.2893 23.2688 20.5 22.7601 20.5 22.2297V21.2297" stroke="black" stroke-width="2" stroke-linecap="round" stroke-linejoin="round"/>
<path d="M19.5 9.22966L22.5 12.2297M23.885 10.8147C24.2788 10.4208 24.5001 9.88664 24.5001 9.32966C24.5001 8.77268 24.2788 8.23851 23.885 7.84466C23.4912 7.45081 22.957 7.22955 22.4 7.22955C21.843 7.22955 21.3088 7.45081 20.915 7.84466L12.5 16.2297V19.2297H15.5L23.885 10.8147Z" stroke="black" stroke-width="2" stroke-linecap="round" stroke-linejoin="round"/>
</svg>
