<?xml version="1.0" standalone="no"?>
<!DOCTYPE svg PUBLIC "-//W3C//DTD SVG 20010904//EN"
 "http://www.w3.org/TR/2001/REC-SVG-20010904/DTD/svg10.dtd">
<svg version="1.0" xmlns="http://www.w3.org/2000/svg"
 width="1080.000000pt" height="1080.000000pt" viewBox="0 0 1080.000000 1080.000000"
 preserveAspectRatio="xMidYMid meet">

<g transform="translate(0.000000,1080.000000) scale(0.100000,-0.100000)"
fill="#000000" stroke="none">
<path d="M4170 8476 c0 -11 -26 -15 -120 -17 -93 -3 -123 -7 -130 -19 -6 -10
-32 -16 -84 -18 -56 -3 -76 -8 -76 -18 0 -9 -12 -14 -35 -14 -21 0 -37 -6 -43
-16 -5 -10 -28 -18 -55 -21 -31 -4 -47 -10 -47 -19 0 -9 -12 -14 -35 -14 -24
0 -35 -5 -35 -15 0 -8 -14 -17 -35 -21 -20 -3 -35 -12 -35 -20 0 -9 -11 -14
-30 -14 -20 0 -30 -5 -30 -15 0 -8 -9 -15 -20 -15 -13 0 -20 -7 -20 -20 0 -16
-7 -20 -30 -20 -20 0 -30 -5 -30 -15 0 -8 -8 -15 -19 -15 -10 0 -21 -9 -24
-20 -3 -11 -12 -20 -21 -20 -9 0 -16 -7 -16 -15 0 -10 -10 -15 -29 -15 -20 0
-30 -6 -34 -20 -3 -11 -12 -20 -21 -20 -9 0 -16 -7 -16 -15 0 -8 -7 -15 -15
-15 -8 0 -15 -7 -15 -15 0 -8 -9 -15 -20 -15 -13 0 -20 -7 -20 -20 0 -11 -7
-20 -15 -20 -8 0 -15 -7 -15 -15 0 -8 -6 -15 -14 -15 -7 0 -16 -9 -19 -20 -3
-11 -12 -20 -21 -20 -9 0 -16 -7 -16 -15 0 -8 -7 -15 -15 -15 -8 0 -15 -9 -15
-20 0 -11 -9 -28 -20 -37 -11 -10 -20 -23 -20 -30 0 -7 -7 -13 -15 -13 -8 0
-15 -9 -15 -20 0 -11 -7 -20 -15 -20 -8 0 -17 -14 -21 -35 -3 -20 -12 -35 -20
-35 -9 0 -14 -11 -14 -30 0 -19 -5 -30 -14 -30 -8 0 -17 -15 -20 -35 -4 -21
-13 -35 -21 -35 -10 0 -15 -11 -15 -35 0 -24 -5 -35 -15 -35 -10 0 -15 -10
-15 -27 0 -43 -11 -73 -26 -73 -10 0 -14 -13 -14 -40 0 -29 -4 -40 -15 -40
-12 0 -15 -14 -15 -65 0 -51 -3 -65 -15 -65 -10 0 -15 -11 -15 -35 0 -19 4
-35 10 -35 5 0 12 -16 16 -35 3 -20 12 -35 20 -35 8 0 14 -7 14 -15 0 -12 16
-15 85 -15 68 0 85 3 85 15 0 7 8 18 17 23 12 7 18 27 21 71 3 40 9 61 17 61
7 0 15 19 18 47 3 26 10 49 16 51 6 2 13 26 17 53 4 32 11 49 20 49 9 0 14 12
14 35 0 23 5 35 14 35 8 0 17 15 20 35 4 21 13 35 21 35 8 0 15 9 15 20 0 11
7 20 15 20 10 0 15 10 15 31 0 22 5 32 20 36 11 3 20 12 20 19 0 8 7 14 15 14
10 0 15 10 15 31 0 22 5 32 20 36 11 3 20 12 20 19 0 8 7 14 15 14 8 0 15 9
15 20 0 11 7 20 15 20 8 0 15 7 15 15 0 8 9 15 20 15 13 0 20 7 20 20 0 11 7
20 15 20 8 0 15 7 15 15 0 8 9 15 20 15 11 0 20 6 20 14 0 8 14 17 30 21 17 4
30 13 30 21 0 8 9 14 20 14 11 0 20 7 20 15 0 8 6 15 13 15 7 0 20 9 30 20 9
11 26 20 37 20 11 0 20 7 20 15 0 10 11 15 35 15 28 0 35 4 35 20 0 16 7 20
30 20 20 0 30 5 30 15 0 10 11 15 35 15 23 0 35 5 35 14 0 8 16 17 37 21 21 4
41 11 44 17 4 6 27 13 53 15 28 4 46 11 46 18 0 9 24 14 80 17 51 2 84 8 89
16 5 9 56 14 172 19 178 6 239 1 239 -22 0 -12 20 -15 105 -15 87 0 105 3 105
15 0 8 7 15 15 15 8 0 15 9 15 20 0 11 7 20 15 20 11 0 15 12 15 50 0 38 -4
50 -15 50 -8 0 -15 9 -15 20 0 11 -7 20 -15 20 -8 0 -15 6 -15 14 0 8 -16 17
-37 21 -21 4 -41 12 -45 18 -3 6 -60 12 -137 15 -102 4 -131 8 -131 18 0 11
-19 14 -80 14 -62 0 -80 -3 -80 -14z"/>
<path d="M6590 7995 c0 -8 -7 -15 -15 -15 -8 0 -15 -9 -15 -20 0 -13 -7 -20
-20 -20 -16 0 -20 -7 -20 -30 0 -20 -5 -30 -15 -30 -11 0 -15 -11 -15 -39 0
-24 -7 -46 -17 -56 -12 -12 -18 -40 -21 -96 -3 -58 -8 -79 -18 -79 -11 0 -14
-39 -14 -210 0 -180 2 -210 15 -210 10 0 15 -10 15 -27 0 -43 11 -73 26 -73 8
0 14 -9 14 -20 0 -11 6 -20 14 -20 8 0 17 -13 21 -30 4 -16 13 -30 21 -30 8 0
14 -9 14 -20 0 -13 7 -20 20 -20 11 0 20 -6 20 -14 0 -8 14 -17 30 -21 17 -4
30 -13 30 -21 0 -8 7 -14 15 -14 8 0 15 -7 15 -15 0 -8 9 -15 20 -15 13 0 20
-7 20 -20 0 -13 7 -20 20 -20 11 0 20 -6 20 -14 0 -8 14 -17 30 -21 17 -4 30
-13 30 -21 0 -8 9 -22 20 -31 15 -13 20 -30 20 -63 0 -33 -5 -50 -20 -63 -11
-9 -20 -26 -20 -37 0 -11 -6 -20 -14 -20 -7 0 -16 -9 -19 -20 -3 -11 -12 -20
-21 -20 -9 0 -16 -7 -16 -15 0 -8 -7 -15 -15 -15 -8 0 -15 -6 -15 -12 0 -16
-44 -58 -59 -58 -6 0 -11 -7 -11 -15 0 -8 -9 -15 -20 -15 -11 0 -20 -6 -20
-14 0 -8 -7 -16 -15 -20 -8 -3 -15 -12 -15 -21 0 -11 -10 -15 -35 -15 -24 0
-35 -5 -35 -15 0 -8 -7 -15 -15 -15 -8 0 -15 -9 -15 -20 0 -16 -7 -20 -35 -20
-24 0 -35 -5 -35 -15 0 -8 -7 -15 -15 -15 -7 0 -18 -7 -23 -16 -5 -8 -27 -18
-50 -21 -26 -4 -42 -11 -42 -19 0 -9 -12 -14 -35 -14 -23 0 -35 -5 -35 -14 0
-9 -15 -17 -40 -21 -25 -4 -40 -12 -40 -21 0 -11 -16 -14 -65 -14 -48 0 -65
-4 -65 -14 0 -9 -20 -15 -66 -19 -40 -3 -70 -10 -75 -18 -7 -11 -71 -15 -321
-17 -278 -3 -314 -1 -324 13 -9 13 -38 18 -123 22 -84 5 -111 9 -111 19 0 11
-21 14 -90 14 -73 0 -90 3 -90 15 0 10 -10 15 -32 15 -72 0 -138 13 -138 26 0
11 -18 14 -70 14 -53 0 -70 3 -70 14 0 10 -18 15 -61 18 -37 3 -64 10 -69 18
-5 9 -33 16 -74 18 -48 3 -66 8 -66 18 0 10 -15 14 -54 14 -35 0 -60 5 -69 15
-9 9 -46 17 -96 21 -58 5 -81 11 -81 20 0 10 -15 14 -55 14 -40 0 -55 4 -55
14 0 10 -25 15 -97 19 -73 4 -99 9 -105 21 -8 14 -34 16 -173 16 -140 0 -165
2 -165 15 0 12 -13 15 -55 15 -41 0 -55 -4 -55 -14 0 -12 -30 -15 -165 -18
-128 -2 -168 -6 -174 -17 -5 -7 -32 -16 -60 -19 -34 -3 -51 -9 -51 -18 0 -10
-14 -14 -50 -14 -36 0 -50 -4 -50 -14 0 -8 -15 -17 -35 -20 -21 -4 -35 -13
-35 -21 0 -10 -10 -15 -30 -15 -20 0 -30 -5 -30 -15 0 -8 -9 -15 -20 -15 -11
0 -20 -7 -20 -15 0 -8 -14 -17 -35 -21 -20 -3 -35 -12 -35 -20 0 -8 -7 -14
-15 -14 -8 0 -15 -7 -15 -15 0 -8 -7 -15 -16 -15 -9 0 -18 -9 -21 -20 -3 -11
-12 -20 -19 -20 -9 0 -14 -12 -14 -35 0 -24 -5 -35 -15 -35 -13 0 -15 -26 -15
-170 0 -144 2 -170 15 -170 12 0 15 -18 15 -100 0 -79 3 -100 14 -100 10 0 16
-20 21 -70 5 -50 11 -70 21 -70 10 0 14 -15 14 -55 0 -42 3 -55 15 -55 10 0
15 -10 15 -27 0 -43 11 -73 26 -73 9 0 14 -12 14 -35 0 -24 5 -35 15 -35 10 0
15 -11 15 -35 0 -24 5 -35 15 -35 8 0 17 -14 21 -35 3 -20 12 -35 20 -35 9 0
14 -12 14 -35 0 -24 5 -35 15 -35 10 0 15 -10 15 -30 0 -23 4 -30 20 -30 16 0
20 -7 20 -35 0 -24 5 -35 15 -35 8 0 15 -6 15 -13 0 -7 9 -20 20 -30 11 -9 20
-26 20 -37 0 -11 7 -20 15 -20 8 0 15 -9 15 -20 0 -11 6 -20 14 -20 8 0 17
-13 21 -30 4 -16 13 -30 21 -30 8 0 14 -9 14 -20 0 -11 7 -20 15 -20 8 0 15
-6 15 -13 0 -7 9 -20 20 -30 11 -9 20 -26 20 -37 0 -11 7 -20 15 -20 8 0 15
-6 15 -14 0 -7 9 -16 20 -19 11 -3 20 -12 20 -21 0 -9 7 -16 15 -16 8 0 15 -7
15 -15 0 -8 7 -15 15 -15 8 0 15 -9 15 -20 0 -13 7 -20 20 -20 13 0 20 -7 20
-20 0 -11 7 -20 15 -20 8 0 15 -7 15 -15 0 -8 7 -15 15 -15 8 0 15 -7 15 -16
0 -9 9 -18 20 -21 11 -3 20 -12 20 -19 0 -8 7 -14 15 -14 8 0 15 -7 15 -15 0
-8 9 -15 20 -15 13 0 20 -7 20 -20 0 -11 7 -20 15 -20 8 0 15 -7 15 -15 0 -8
9 -15 20 -15 11 0 20 -7 20 -15 0 -8 7 -15 15 -15 8 0 15 -7 15 -16 0 -9 9
-18 20 -21 11 -3 20 -12 20 -19 0 -8 7 -14 15 -14 8 0 15 -7 15 -15 0 -8 7
-15 15 -15 10 0 16 -16 21 -50 4 -32 11 -50 20 -50 10 0 14 -15 14 -55 0 -42
3 -55 15 -55 10 0 15 -10 15 -27 0 -43 11 -73 26 -73 9 0 14 -12 14 -35 0 -24
5 -35 15 -35 10 0 15 -11 15 -35 0 -23 5 -35 14 -35 15 0 26 -30 26 -72 0 -18
5 -28 15 -28 10 0 15 -11 15 -35 0 -24 5 -35 14 -35 8 0 17 -13 21 -29 3 -16
13 -32 21 -35 8 -3 14 -15 14 -26 0 -11 7 -20 15 -20 10 0 15 -10 15 -29 0
-20 6 -30 20 -34 15 -4 20 -14 20 -36 0 -21 5 -31 15 -31 8 0 15 -9 15 -20 0
-11 9 -28 20 -37 11 -10 20 -23 20 -30 0 -7 7 -13 15 -13 10 0 15 -11 15 -35
0 -23 5 -35 14 -35 7 0 16 -9 19 -20 3 -11 12 -20 21 -20 9 0 16 -7 16 -15 0
-8 9 -15 20 -15 11 0 20 -6 20 -14 0 -8 14 -18 32 -21 17 -4 38 -14 46 -21 20
-21 222 -20 222 1 0 8 14 17 35 21 20 3 35 12 35 20 0 8 7 14 15 14 8 0 15 7
15 15 0 8 7 15 16 15 9 0 18 9 21 20 3 11 12 20 19 20 9 0 14 11 14 30 0 18 6
33 15 36 8 3 17 21 21 40 3 19 12 34 20 34 10 0 14 14 14 50 0 38 4 50 15 50
11 0 15 11 15 39 0 59 11 101 26 101 8 0 14 7 14 15 0 19 29 20 36 1 3 -9 31
-16 84 -20 54 -5 80 -12 84 -22 4 -11 28 -14 106 -14 82 0 100 -3 100 -15 0
-13 23 -15 150 -15 127 0 150 2 150 15 0 8 8 15 19 15 14 0 21 10 25 35 4 19
11 35 16 35 6 0 10 16 10 35 0 24 -5 35 -15 35 -10 0 -15 10 -15 29 0 25 -5
31 -30 36 -16 4 -30 13 -30 21 0 12 -30 14 -175 14 -141 0 -175 3 -175 14 0 9
-23 15 -82 20 -45 4 -86 12 -89 18 -4 7 -37 14 -73 16 -48 3 -66 8 -66 18 0 9
-11 14 -27 14 -43 0 -73 11 -73 26 0 10 -14 14 -50 14 -38 0 -50 4 -50 15 0
10 -11 15 -35 15 -24 0 -35 5 -35 15 0 10 -16 16 -50 21 -32 4 -50 11 -50 20
0 9 -12 14 -35 14 -24 0 -35 5 -35 15 0 8 -7 15 -15 15 -9 0 -18 7 -21 15 -3
8 -21 17 -40 21 -19 3 -34 12 -34 20 0 9 -11 14 -30 14 -17 0 -33 6 -36 14 -3
8 -19 18 -35 21 -16 4 -29 13 -29 21 0 8 -9 14 -20 14 -11 0 -20 6 -20 14 0 8
-13 17 -30 21 -17 4 -30 13 -30 21 0 8 -9 14 -20 14 -11 0 -20 6 -20 14 0 8
-15 17 -35 20 -21 4 -35 13 -35 21 0 8 -7 15 -15 15 -8 0 -15 7 -15 15 0 8 -9
15 -20 15 -11 0 -20 6 -20 14 0 8 -14 17 -30 21 -17 4 -30 13 -30 21 0 8 -9
14 -20 14 -11 0 -20 7 -20 15 0 8 -7 15 -15 15 -8 0 -15 7 -15 16 0 9 -9 18
-20 21 -11 3 -20 11 -20 18 0 8 -13 16 -30 20 -17 4 -30 13 -30 21 0 8 -9 14
-20 14 -11 0 -20 7 -20 15 0 8 -7 15 -15 15 -8 0 -15 9 -15 20 0 11 -7 20 -15
20 -8 0 -15 7 -15 15 0 8 -9 15 -20 15 -13 0 -20 7 -20 20 0 11 -7 20 -15 20
-8 0 -15 7 -15 15 0 8 -9 15 -20 15 -15 0 -20 7 -20 29 0 20 -6 30 -20 34 -11
3 -20 12 -20 21 0 9 -7 16 -15 16 -8 0 -15 9 -15 20 0 11 -7 20 -15 20 -8 0
-15 7 -15 15 0 8 -6 15 -14 15 -8 0 -17 14 -21 30 -4 16 -13 30 -21 30 -8 0
-14 9 -14 20 0 11 -6 20 -14 20 -7 0 -16 9 -19 20 -3 11 -12 20 -21 20 -11 0
-16 9 -16 30 0 20 -5 30 -15 30 -8 0 -15 9 -15 20 0 13 -7 20 -20 20 -16 0
-20 7 -20 35 0 24 -5 35 -15 35 -8 0 -15 7 -15 15 0 9 -6 18 -14 21 -8 3 -18
19 -21 35 -4 16 -13 29 -21 29 -9 0 -14 11 -14 35 0 23 -5 35 -14 35 -8 0 -17
15 -20 34 -4 19 -11 36 -17 38 -6 2 -13 25 -16 51 -3 28 -11 47 -18 47 -7 0
-16 15 -19 34 -4 19 -12 36 -18 38 -6 2 -13 32 -16 66 -3 44 -8 62 -18 62 -11
0 -14 17 -14 70 0 56 3 70 15 70 8 0 15 9 15 20 0 13 7 20 20 20 11 0 20 7 20
15 0 8 7 15 15 15 8 0 15 7 15 15 0 10 16 16 50 21 32 4 50 11 50 20 0 11 26
14 125 14 99 0 125 -3 125 -14 0 -9 18 -16 50 -20 34 -5 50 -11 50 -21 0 -10
10 -15 30 -15 19 0 30 -5 30 -14 0 -8 15 -17 34 -20 19 -4 37 -13 40 -21 3 -9
18 -15 36 -15 20 0 30 -5 30 -15 0 -8 9 -15 20 -15 11 0 20 -7 20 -15 0 -8 14
-17 35 -21 20 -3 35 -12 35 -20 0 -9 11 -14 30 -14 19 0 30 -5 30 -14 0 -7 9
-16 20 -19 11 -3 20 -12 20 -21 0 -9 7 -16 15 -16 8 0 15 -7 15 -15 0 -10 11
-15 35 -15 28 0 35 -4 35 -20 0 -13 7 -20 20 -20 11 0 20 -7 20 -15 0 -10 10
-15 30 -15 23 0 30 -4 30 -20 0 -13 7 -20 20 -20 11 0 20 -7 20 -15 0 -8 7
-15 15 -15 8 0 15 -6 15 -14 0 -8 15 -17 35 -20 21 -4 35 -13 35 -21 0 -8 7
-15 15 -15 8 0 15 -7 15 -15 0 -8 9 -15 20 -15 11 0 20 -6 20 -14 0 -8 13 -17
30 -21 16 -4 30 -13 30 -21 0 -8 9 -14 20 -14 11 0 20 -7 20 -15 0 -8 7 -15
16 -15 9 0 18 -9 21 -20 4 -14 14 -20 34 -20 19 0 29 -5 29 -15 0 -8 7 -15 16
-15 9 0 18 -9 21 -20 3 -11 12 -20 19 -20 8 0 14 -7 14 -15 0 -8 9 -15 20 -15
11 0 20 -6 20 -14 0 -8 14 -17 30 -21 17 -4 30 -13 30 -21 0 -8 9 -14 20 -14
11 0 20 -6 20 -14 0 -8 13 -17 30 -21 16 -4 30 -13 30 -21 0 -8 9 -14 20 -14
11 0 20 -7 20 -15 0 -8 14 -17 35 -21 20 -3 35 -12 35 -20 0 -8 7 -14 15 -14
8 0 15 -7 15 -15 0 -10 11 -15 35 -15 28 0 35 -4 35 -20 0 -16 7 -20 35 -20
24 0 35 -5 35 -15 0 -10 10 -15 30 -15 19 0 30 -5 30 -14 0 -8 15 -17 34 -20
19 -4 37 -13 40 -21 3 -9 18 -15 36 -15 20 0 30 -5 30 -15 0 -10 10 -15 34
-15 25 0 35 -5 39 -20 4 -16 14 -20 51 -20 34 0 46 -4 46 -15 0 -8 9 -15 20
-15 11 0 20 -7 20 -15 0 -8 6 -15 14 -15 10 0 15 -26 21 -105 5 -80 10 -105
21 -105 10 0 14 -14 14 -55 0 -42 3 -55 15 -55 11 0 15 -12 15 -45 0 -30 5
-47 16 -53 10 -5 18 -28 21 -55 4 -31 10 -47 19 -47 10 0 14 -14 14 -50 0 -37
4 -50 15 -50 8 0 17 -14 21 -35 3 -20 12 -35 20 -35 9 0 14 -12 14 -35 0 -24
5 -35 14 -35 8 0 17 -13 21 -29 3 -16 13 -32 21 -35 8 -3 14 -15 14 -26 0 -11
7 -20 15 -20 10 0 15 -10 15 -30 0 -20 5 -30 15 -30 8 0 17 -14 21 -35 3 -20
12 -35 20 -35 8 0 14 -7 14 -15 0 -8 6 -15 14 -15 8 0 17 -15 20 -35 4 -21 13
-35 21 -35 8 0 15 -7 15 -15 0 -8 7 -15 15 -15 8 0 15 -7 15 -16 0 -9 9 -18
20 -21 11 -3 20 -12 20 -19 0 -8 7 -14 15 -14 8 0 15 -9 15 -20 0 -11 7 -20
15 -20 8 0 15 -7 15 -16 0 -9 9 -18 20 -21 11 -3 20 -12 20 -19 0 -8 6 -14 14
-14 8 0 17 -14 21 -30 4 -17 13 -30 21 -30 8 0 14 -9 14 -20 0 -11 7 -20 15
-20 8 0 15 -7 15 -15 0 -8 9 -15 20 -15 11 0 20 -7 20 -15 0 -8 7 -15 15 -15
8 0 15 -9 15 -20 0 -13 7 -20 20 -20 11 0 20 -6 20 -14 0 -8 14 -17 30 -21 17
-4 30 -13 30 -21 0 -8 6 -14 14 -14 7 0 16 -9 19 -20 3 -11 12 -20 21 -20 9 0
16 -7 16 -15 0 -8 9 -15 20 -15 11 0 20 -7 20 -15 0 -8 7 -15 15 -15 8 0 15
-7 15 -15 0 -8 14 -17 35 -21 20 -3 35 -12 35 -20 0 -9 11 -14 30 -14 19 0 30
-5 30 -14 0 -16 43 -26 119 -26 93 0 161 11 161 26 0 8 9 14 20 14 11 0 20 7
20 15 0 8 7 15 15 15 8 0 15 9 15 20 0 11 7 20 15 20 8 0 15 6 15 14 0 7 9 16
20 19 15 4 20 14 20 36 0 21 5 31 15 31 13 0 15 37 15 270 0 222 -2 270 -14
270 -10 0 -15 22 -18 86 -3 55 -9 89 -17 94 -7 4 -16 28 -18 54 -4 30 -10 46
-19 46 -10 0 -14 15 -14 55 0 40 -4 55 -14 55 -9 0 -16 18 -20 50 -5 34 -11
50 -21 50 -10 0 -15 11 -15 35 0 24 -5 35 -15 35 -10 0 -15 10 -15 28 0 15 -9
35 -20 45 -11 9 -20 26 -20 37 0 11 -7 20 -15 20 -10 0 -15 11 -15 35 0 28 -4
35 -20 35 -13 0 -20 7 -20 20 0 11 -7 20 -15 20 -10 0 -15 10 -15 30 0 20 -5
30 -15 30 -8 0 -15 7 -15 16 0 9 -9 18 -20 21 -11 3 -20 12 -20 19 0 8 -7 14
-15 14 -8 0 -15 9 -15 20 0 11 -7 20 -15 20 -8 0 -15 7 -15 15 0 8 -9 15 -20
15 -13 0 -20 7 -20 20 0 11 -7 20 -15 20 -8 0 -15 7 -15 15 0 8 -9 15 -20 15
-13 0 -20 7 -20 20 0 11 -7 20 -15 20 -8 0 -15 7 -15 15 0 10 -11 15 -35 15
-23 0 -35 5 -35 14 0 9 -18 15 -52 19 -28 4 -54 10 -57 15 -8 12 -81 23 -108
16 -13 -4 -23 -13 -23 -20 0 -8 -9 -14 -20 -14 -11 0 -20 -7 -20 -15 0 -8 -7
-15 -15 -15 -8 0 -15 -9 -15 -20 0 -11 -7 -20 -15 -20 -8 0 -15 -7 -15 -15 0
-8 7 -15 15 -15 12 0 15 -13 15 -55 0 -42 3 -55 15 -55 8 0 15 -7 15 -15 0 -8
9 -15 20 -15 11 0 20 -6 20 -14 0 -10 18 -15 61 -18 44 -3 64 -9 71 -21 5 -10
21 -17 38 -17 20 0 30 -5 30 -15 0 -8 9 -15 20 -15 11 0 20 -7 20 -15 0 -8 7
-15 15 -15 8 0 15 -9 15 -20 0 -13 7 -20 20 -20 13 0 20 -7 20 -20 0 -11 7
-20 15 -20 8 0 15 -7 15 -15 0 -8 6 -15 14 -15 8 0 17 -15 20 -35 4 -21 13
-35 21 -35 10 0 15 -10 15 -30 0 -19 5 -30 14 -30 8 0 17 -15 20 -34 4 -19 13
-37 21 -40 9 -3 15 -18 15 -36 0 -20 5 -30 15 -30 10 0 15 -11 15 -35 0 -24 5
-35 15 -35 10 0 16 -16 21 -50 4 -32 11 -50 20 -50 10 0 14 -15 14 -55 0 -40
4 -55 14 -55 9 0 15 -20 19 -66 3 -40 10 -70 18 -75 11 -6 15 -58 17 -239 4
-228 4 -230 -17 -230 -12 0 -21 -6 -21 -15 0 -8 -7 -15 -15 -15 -8 0 -15 7
-15 15 0 8 -7 15 -15 15 -8 0 -15 6 -15 14 0 8 -15 17 -35 20 -21 4 -35 13
-35 21 0 8 -7 15 -15 15 -8 0 -15 7 -15 15 0 8 -9 15 -20 15 -13 0 -20 7 -20
20 0 13 -7 20 -20 20 -11 0 -20 7 -20 15 0 8 -7 15 -15 15 -8 0 -15 6 -15 14
0 7 -9 16 -20 19 -11 3 -20 12 -20 21 0 9 -7 16 -15 16 -8 0 -15 7 -15 15 0 8
-6 15 -12 15 -16 0 -58 44 -58 59 0 6 -7 11 -15 11 -8 0 -15 6 -15 14 0 7 -9
16 -20 19 -11 3 -20 12 -20 21 0 9 -7 16 -15 16 -8 0 -15 7 -15 15 0 8 -7 15
-15 15 -8 0 -15 9 -15 20 0 13 -7 20 -20 20 -11 0 -20 7 -20 15 0 8 -7 15 -15
15 -8 0 -15 9 -15 20 0 11 -6 20 -14 20 -8 0 -17 13 -21 30 -4 16 -13 30 -21
30 -8 0 -14 9 -14 20 0 11 -6 20 -14 20 -8 0 -17 15 -20 35 -4 21 -13 35 -21
35 -8 0 -15 7 -15 15 0 8 -7 15 -15 15 -10 0 -15 11 -15 35 0 24 -5 35 -15 35
-8 0 -17 14 -21 35 -3 20 -12 35 -20 35 -9 0 -14 11 -14 30 0 17 -6 33 -14 36
-8 3 -17 21 -20 40 -4 20 -13 34 -21 34 -11 0 -15 13 -15 50 0 36 -4 50 -14
50 -9 0 -15 16 -19 46 -2 26 -11 50 -18 54 -7 5 -15 35 -17 69 -3 41 -9 61
-17 61 -9 0 -14 25 -17 87 -2 57 -7 88 -16 91 -18 6 -16 72 3 72 8 0 15 7 15
15 0 8 -7 15 -15 15 -10 0 -15 11 -15 35 0 28 -4 35 -20 35 -13 0 -20 7 -20
20 0 11 -7 20 -15 20 -8 0 -15 7 -15 15 0 11 -12 15 -50 15 -36 0 -50 4 -50
14 0 8 -16 17 -37 21 -21 4 -41 11 -44 17 -3 5 -25 12 -48 15 -25 4 -41 11
-41 19 0 8 -11 14 -25 14 -14 0 -33 9 -42 20 -10 11 -30 20 -45 20 -18 0 -28
5 -28 15 0 10 -10 15 -34 15 -25 0 -35 5 -39 20 -4 15 -14 20 -36 20 -21 0
-31 5 -31 15 0 8 -9 15 -20 15 -11 0 -20 6 -20 14 0 8 -13 17 -29 21 -16 3
-32 13 -35 21 -3 8 -19 14 -36 14 -20 0 -30 5 -30 15 0 8 -7 15 -16 15 -9 0
-18 9 -21 20 -4 14 -14 20 -34 20 -19 0 -29 5 -29 15 0 8 -9 15 -20 15 -13 0
-20 7 -20 20 0 11 -7 20 -15 20 -8 0 -15 7 -15 15 0 10 -11 15 -35 15 -24 0
-35 5 -35 15 0 8 -7 15 -15 15 -8 0 -15 9 -15 20 0 13 -7 20 -20 20 -11 0 -20
7 -20 15 0 10 -11 15 -35 15 -28 0 -35 4 -35 20 0 11 -7 20 -15 20 -8 0 -15 7
-15 15 0 8 -9 15 -20 15 -11 0 -20 7 -20 15 0 8 -6 15 -14 15 -7 0 -16 9 -19
20 -4 15 -14 20 -36 20 -21 0 -31 5 -31 15 0 8 -7 15 -15 15 -8 0 -15 9 -15
20 0 13 -7 20 -20 20 -11 0 -20 7 -20 15 0 10 -10 15 -29 15 -20 0 -30 6 -34
20 -3 11 -12 20 -21 20 -9 0 -16 7 -16 15 0 8 -9 15 -20 15 -11 0 -20 6 -20
14 0 8 -13 17 -30 21 -17 4 -30 13 -30 21 0 8 -9 14 -20 14 -11 0 -20 7 -20
15 0 8 -6 15 -13 15 -7 0 -20 9 -30 20 -9 11 -26 20 -37 20 -11 0 -20 7 -20
15 0 8 -9 15 -20 15 -11 0 -20 6 -20 14 0 8 -13 17 -30 21 -16 4 -30 13 -30
21 0 8 -9 14 -20 14 -11 0 -20 7 -20 15 0 8 -14 17 -35 21 -20 3 -35 12 -35
20 0 9 -11 14 -30 14 -20 0 -30 5 -30 15 0 10 -10 15 -34 15 -25 0 -35 5 -39
20 -4 15 -14 20 -36 20 -21 0 -31 5 -31 15 0 11 -12 15 -50 15 -36 0 -50 4
-50 14 0 20 -47 26 -219 26 -168 0 -201 -5 -201 -26 0 -10 -14 -14 -50 -14
-36 0 -50 -4 -50 -14 0 -15 -51 -29 -63 -17 -12 12 3 61 19 61 8 0 14 7 14 15
0 8 14 17 35 21 20 3 35 12 35 20 0 9 11 14 30 14 18 0 33 6 36 15 4 9 19 15
36 15 21 0 31 6 35 20 4 17 14 20 54 20 34 0 49 4 49 14 0 18 211 26 457 19
144 -5 183 -9 183 -20 0 -10 19 -13 75 -13 57 0 75 -3 75 -14 0 -14 60 -26
127 -26 19 0 41 -7 49 -15 11 -11 37 -15 90 -15 57 0 74 -3 74 -14 0 -10 19
-16 64 -21 41 -5 67 -12 70 -21 4 -10 24 -14 71 -14 48 0 65 -4 65 -14 0 -9
20 -15 66 -19 38 -3 70 -10 74 -18 5 -7 35 -15 69 -17 43 -3 61 -8 61 -18 0
-11 19 -14 85 -14 65 0 85 -3 85 -14 0 -16 43 -26 115 -26 38 0 55 -4 59 -15
4 -12 24 -15 91 -15 65 0 85 -3 85 -13 0 -15 153 -27 342 -27 59 0 98 -4 98
-10 0 -5 16 -10 35 -10 19 0 35 5 35 10 0 6 31 10 73 10 145 0 267 12 267 27
0 10 18 13 70 13 56 0 70 3 70 15 0 11 12 15 50 15 43 0 50 3 50 20 0 18 7 20
55 20 42 0 55 3 55 15 0 10 10 15 30 15 16 0 33 7 38 16 5 8 27 18 50 21 24 3
42 11 42 18 0 7 15 16 34 19 19 4 37 13 40 21 3 8 12 15 21 15 8 0 15 7 15 15
0 10 11 15 35 15 24 0 35 5 35 15 0 8 7 15 15 15 8 0 15 9 15 20 0 16 7 20 35
20 23 0 35 5 35 14 0 7 9 16 20 19 11 3 20 12 20 21 0 9 7 16 15 16 8 0 15 7
15 15 0 8 7 15 15 15 9 0 18 7 21 15 4 8 12 15 20 15 8 0 14 9 14 20 0 11 7
20 15 20 8 0 15 7 15 15 0 8 9 15 20 15 13 0 20 7 20 20 0 11 7 20 15 20 8 0
15 7 15 15 0 8 5 15 11 15 15 0 59 42 59 58 0 6 7 12 15 12 8 0 15 9 15 20 0
11 7 20 15 20 8 0 17 14 21 35 3 20 12 35 20 35 11 0 14 16 14 65 0 51 3 65
15 65 10 0 15 11 15 35 0 24 -5 35 -15 35 -11 0 -15 12 -15 50 0 38 -4 50 -15
50 -8 0 -15 9 -15 20 0 13 -7 20 -20 20 -16 0 -20 7 -20 35 0 24 -5 35 -15 35
-8 0 -15 7 -15 15 0 8 -9 15 -20 15 -13 0 -20 7 -20 20 0 11 -6 20 -14 20 -8
0 -16 7 -20 15 -3 9 -18 15 -36 15 -23 0 -30 4 -30 20 0 11 -7 20 -15 20 -8 0
-15 7 -15 15 0 8 -9 15 -20 15 -11 0 -20 7 -20 15 0 8 -6 15 -14 15 -7 0 -16
9 -19 20 -3 11 -12 20 -21 20 -9 0 -16 7 -16 15 0 8 -7 15 -15 15 -8 0 -15 9
-15 20 0 11 -7 20 -15 20 -13 0 -15 23 -15 151 0 120 3 153 15 165 8 9 15 24
15 35 0 10 7 19 15 19 8 0 15 -7 15 -15 0 -8 14 -17 35 -21 20 -3 35 -12 35
-20 0 -9 12 -14 35 -14 24 0 35 -5 35 -14 0 -8 13 -17 29 -21 16 -3 32 -13 35
-21 4 -9 21 -14 56 -14 38 0 50 -4 50 -15 0 -12 16 -15 85 -15 78 0 85 -2 85
-20 0 -18 7 -20 65 -20 51 0 65 -3 65 -15 0 -11 11 -15 40 -15 29 0 40 -4 40
-15 0 -8 7 -15 15 -15 8 0 15 -7 15 -15 0 -8 7 -15 15 -15 8 0 15 -9 15 -20 0
-11 6 -20 14 -20 13 0 26 -41 26 -86 0 -15 6 -24 15 -24 12 0 15 -14 15 -65 0
-58 2 -65 20 -65 11 0 20 -6 20 -14 0 -18 31 -26 100 -26 69 0 100 8 100 26 0
8 9 14 20 14 11 0 20 7 20 15 0 8 7 15 15 15 8 0 15 6 15 14 0 7 9 16 20 19
11 3 20 12 20 21 0 9 7 16 15 16 8 0 15 6 15 14 0 7 14 16 30 20 18 3 30 12
30 21 0 13 26 15 190 15 162 0 190 -2 190 -15 0 -12 14 -15 70 -15 56 0 70 3
70 15 0 12 14 15 70 15 56 0 70 3 70 15 0 11 12 15 50 15 44 0 50 3 50 21 0
14 5 19 18 17 9 -2 17 -11 16 -21 0 -9 -1 -55 -2 -102 -2 -68 -5 -85 -17 -85
-11 0 -15 -12 -15 -50 0 -43 -3 -50 -20 -50 -12 0 -20 -7 -20 -16 0 -8 -7 -22
-15 -30 -8 -9 -15 -24 -15 -35 0 -12 -7 -19 -20 -19 -11 0 -20 -6 -20 -14 0
-8 -13 -17 -30 -21 -16 -4 -30 -13 -30 -21 0 -8 -9 -14 -20 -14 -11 0 -20 -7
-20 -15 0 -10 -11 -15 -35 -15 -23 0 -41 -7 -52 -20 -11 -12 -30 -20 -50 -20
-21 0 -33 -5 -33 -14 0 -9 -16 -15 -46 -19 -26 -2 -49 -9 -53 -15 -3 -5 -30
-13 -58 -17 -36 -5 -53 -12 -53 -21 0 -10 -15 -14 -60 -14 -47 0 -60 -3 -60
-15 0 -11 -11 -15 -36 -15 -27 0 -37 -5 -41 -20 -4 -15 -14 -20 -39 -20 -24 0
-34 -5 -34 -15 0 -8 -7 -15 -15 -15 -8 0 -15 -9 -15 -20 0 -13 -7 -20 -20 -20
-11 0 -20 -7 -20 -15 0 -8 -7 -15 -15 -15 -8 0 -15 -9 -15 -20 0 -11 -7 -20
-15 -20 -10 0 -15 -10 -15 -30 0 -17 -7 -33 -17 -39 -15 -8 -19 -27 -21 -105
-3 -74 -7 -96 -18 -96 -11 0 -14 -19 -14 -90 0 -69 -3 -90 -14 -90 -15 0 -26
-61 -26 -146 0 -41 -4 -54 -15 -54 -12 0 -15 -14 -15 -65 0 -48 -4 -65 -14
-65 -9 0 -15 -18 -19 -52 -4 -28 -12 -55 -19 -59 -6 -4 -14 -35 -16 -68 -3
-40 -9 -61 -17 -61 -7 0 -15 -19 -18 -47 -3 -27 -11 -50 -21 -55 -10 -6 -16
-22 -16 -43 0 -24 -5 -35 -15 -35 -11 0 -15 -12 -15 -50 0 -36 -4 -50 -14 -50
-9 0 -16 -18 -20 -50 -5 -34 -11 -50 -21 -50 -10 0 -15 -11 -15 -35 0 -24 -5
-35 -15 -35 -8 0 -15 -9 -15 -20 0 -11 -9 -28 -20 -37 -11 -10 -20 -30 -20
-45 0 -18 -5 -28 -15 -28 -8 0 -15 -9 -15 -20 0 -11 -6 -20 -14 -20 -8 0 -17
-15 -20 -35 -4 -21 -13 -35 -21 -35 -10 0 -15 -11 -15 -35 0 -24 -5 -35 -15
-35 -8 0 -15 -6 -15 -13 0 -7 -9 -20 -20 -30 -11 -9 -20 -26 -20 -37 0 -11 -7
-20 -15 -20 -8 0 -15 -9 -15 -20 0 -11 -6 -20 -14 -20 -8 0 -17 -14 -21 -30
-4 -16 -13 -30 -21 -30 -8 0 -14 -9 -14 -20 0 -11 -7 -20 -15 -20 -8 0 -15 -6
-15 -13 0 -7 -9 -20 -20 -30 -11 -9 -20 -26 -20 -37 0 -11 -7 -20 -15 -20 -8
0 -15 -6 -15 -14 0 -7 -9 -16 -20 -19 -11 -3 -20 -12 -20 -21 0 -9 -7 -16 -15
-16 -8 0 -15 -7 -15 -15 0 -8 -7 -15 -15 -15 -8 0 -15 -7 -15 -16 0 -9 -9 -18
-20 -21 -14 -4 -20 -14 -20 -34 0 -19 -5 -29 -15 -29 -12 0 -15 -13 -15 -55 0
-42 3 -55 15 -55 8 0 15 -7 15 -15 0 -8 6 -15 14 -15 7 0 16 -9 19 -20 4 -17
14 -20 71 -20 59 0 66 2 66 20 0 13 7 20 20 20 11 0 20 7 20 15 0 8 7 15 15
15 8 0 15 9 15 20 0 11 7 20 15 20 8 0 15 7 15 15 0 8 9 15 20 15 13 0 20 7
20 20 0 11 7 20 15 20 8 0 15 7 15 15 0 8 6 15 14 15 8 0 17 14 21 30 4 16 13
30 21 30 8 0 14 9 14 20 0 11 7 20 15 20 8 0 15 7 15 16 0 9 9 18 20 21 14 4
20 14 20 34 0 19 5 29 15 29 8 0 15 7 15 16 0 9 9 18 20 21 11 3 20 14 20 24
0 11 7 19 15 19 10 0 15 10 15 30 0 20 5 30 15 30 8 0 17 14 21 35 3 20 12 35
20 35 8 0 14 9 14 20 0 11 6 20 14 20 8 0 17 14 21 30 4 16 13 30 21 30 9 0
14 11 14 35 0 23 5 35 14 35 8 0 17 15 20 35 4 21 13 35 21 35 10 0 15 11 15
35 0 24 5 35 15 35 10 0 15 10 15 30 0 18 6 33 15 36 8 3 17 21 21 40 3 19 12
34 20 34 10 0 14 13 14 45 0 32 4 45 14 45 9 0 17 15 21 40 4 25 12 40 21 40
10 0 14 14 14 50 0 36 4 50 14 50 9 0 15 16 19 47 3 27 11 50 21 55 11 6 16
23 16 53 0 33 4 45 15 45 12 0 15 13 15 55 0 42 3 55 15 55 10 0 15 10 15 34
0 66 12 126 26 126 11 0 14 18 14 75 0 56 3 75 13 75 10 0 16 25 20 97 4 61
11 100 19 104 8 5 14 38 16 89 3 60 8 80 18 80 8 0 14 9 14 20 0 11 7 20 15
20 8 0 15 7 15 15 0 8 9 15 20 15 11 0 20 6 20 14 0 8 17 15 50 19 28 3 57 13
66 22 10 10 34 15 70 15 39 0 54 4 54 14 0 9 16 15 47 19 26 3 49 10 51 16 2
6 19 13 38 17 19 3 34 12 34 20 0 10 14 14 49 14 40 0 50 3 54 20 3 11 12 20
21 20 9 0 16 7 16 15 0 10 11 15 35 15 24 0 35 5 35 14 0 8 14 17 30 21 17 4
30 13 30 21 0 8 9 14 20 14 11 0 20 7 20 15 0 8 6 15 14 15 7 0 16 9 19 20 3
11 12 20 21 20 9 0 16 7 16 15 0 8 7 15 15 15 8 0 15 9 15 20 0 11 9 28 20 37
11 10 20 25 20 35 0 10 7 18 15 18 10 0 15 10 15 30 0 19 5 30 14 30 8 0 15
17 19 50 3 28 13 57 22 66 11 12 15 38 15 105 0 72 3 89 15 89 13 0 15 31 15
220 0 189 -2 220 -15 220 -8 0 -15 9 -15 20 0 11 -7 20 -15 20 -8 0 -15 7 -15
15 0 12 -14 15 -70 15 -56 0 -70 -3 -70 -15 0 -8 -9 -15 -20 -15 -11 0 -20 -7
-20 -15 0 -8 -7 -15 -15 -15 -8 0 -15 -9 -15 -20 0 -11 -7 -20 -15 -20 -8 0
-15 -7 -15 -15 0 -8 -9 -15 -20 -15 -13 0 -20 -7 -20 -20 0 -16 -7 -20 -35
-20 -24 0 -35 -5 -35 -15 0 -10 -10 -15 -30 -15 -17 0 -33 -7 -39 -17 -9 -16
-31 -18 -237 -18 -172 0 -228 3 -232 13 -4 14 -112 17 -112 3 0 -5 -29 -13
-65 -16 -45 -5 -65 -12 -65 -21 0 -8 -9 -14 -20 -14 -11 0 -20 -7 -20 -15 0
-8 -14 -17 -35 -21 -20 -3 -35 -12 -35 -20 0 -21 -19 -17 -46 9 -14 12 -24 34
-24 50 0 17 -5 27 -15 27 -8 0 -15 9 -15 20 0 11 -7 20 -15 20 -8 0 -15 7 -15
15 0 8 -9 15 -20 15 -11 0 -20 6 -20 14 0 8 -13 17 -30 21 -16 4 -30 12 -30
20 0 7 -16 16 -35 19 -19 4 -35 11 -35 15 0 5 -15 12 -34 15 -19 4 -37 13 -40
21 -4 11 -22 15 -71 15 -48 0 -65 4 -65 13 0 11 -26 16 -102 20 -59 4 -104 11
-108 18 -4 6 -28 14 -54 16 -30 4 -46 10 -46 19 0 8 -9 14 -20 14 -11 0 -28 9
-37 20 -10 11 -23 20 -30 20 -7 0 -13 7 -13 15 0 8 -6 15 -14 15 -8 0 -17 15
-20 35 -4 21 -13 35 -21 35 -10 0 -15 10 -15 29 0 20 -6 30 -20 34 -11 3 -20
12 -20 21 0 14 -15 16 -100 16 -82 0 -100 -3 -100 -15z m-2810 -4450 c0 -8 9
-15 20 -15 13 0 20 -7 20 -20 0 -16 7 -20 35 -20 24 0 35 -5 35 -15 0 -10 10
-15 30 -15 19 0 30 -5 30 -14 0 -8 15 -17 35 -20 21 -4 35 -13 35 -21 0 -10
11 -15 35 -15 23 0 35 -5 35 -14 0 -8 15 -17 36 -21 20 -3 43 -13 51 -21 8 -8
29 -14 48 -14 25 0 34 -5 38 -21 8 -32 -3 -79 -19 -79 -11 0 -14 -17 -14 -70
0 -56 -3 -70 -15 -70 -10 0 -15 -10 -15 -27 0 -43 -11 -73 -26 -73 -8 0 -14
-9 -14 -20 0 -15 -7 -20 -27 -20 -43 0 -73 11 -73 26 0 8 -6 14 -14 14 -8 0
-17 15 -20 35 -4 21 -13 35 -21 35 -10 0 -15 10 -15 30 0 20 -5 30 -15 30 -8
0 -15 9 -15 20 0 11 -7 20 -15 20 -8 0 -17 14 -21 35 -3 20 -12 35 -20 35 -9
0 -14 11 -14 30 0 18 -6 33 -15 36 -8 3 -17 21 -21 40 -3 19 -12 34 -20 34 -9
0 -14 11 -14 30 0 20 -5 30 -15 30 -10 0 -15 10 -15 34 0 25 -5 35 -20 39 -25
6 -29 67 -5 67 8 0 15 -7 15 -15z"/>
<path d="M4160 7925 c0 -12 -18 -15 -100 -15 -76 0 -102 -3 -106 -14 -3 -8
-27 -16 -55 -20 -33 -5 -49 -11 -49 -21 0 -11 -12 -15 -45 -15 -32 0 -45 -4
-45 -14 0 -8 -15 -17 -34 -20 -19 -4 -37 -13 -40 -21 -3 -8 -15 -15 -26 -15
-11 0 -20 -7 -20 -15 0 -10 -10 -15 -30 -15 -23 0 -30 -4 -30 -20 0 -13 -7
-20 -20 -20 -11 0 -20 -6 -20 -14 0 -8 -13 -17 -30 -21 -16 -4 -30 -13 -30
-21 0 -8 -7 -14 -15 -14 -8 0 -15 -7 -15 -15 0 -8 -9 -15 -20 -15 -13 0 -20
-7 -20 -20 0 -11 -7 -20 -15 -20 -8 0 -15 -7 -15 -15 0 -8 -9 -15 -20 -15 -16
0 -20 -7 -20 -30 0 -20 -5 -30 -15 -30 -8 0 -15 -9 -15 -20 0 -13 -7 -20 -20
-20 -13 0 -20 -7 -20 -20 0 -11 -7 -20 -15 -20 -10 0 -15 -10 -15 -28 0 -15
-9 -35 -20 -45 -11 -9 -20 -26 -20 -37 0 -11 -7 -20 -15 -20 -10 0 -15 -11
-15 -35 0 -23 -5 -35 -14 -35 -8 0 -15 -17 -19 -50 -3 -28 -13 -57 -22 -66
-22 -22 -22 -194 0 -194 8 0 15 -7 15 -15 0 -8 9 -15 20 -15 11 0 20 -6 20
-14 0 -16 47 -27 79 -19 11 3 21 12 21 19 0 8 9 14 20 14 11 0 20 7 20 15 0 8
7 15 15 15 10 0 15 11 15 35 0 23 5 35 14 35 9 0 16 18 20 50 5 34 11 50 21
50 11 0 15 12 15 40 0 29 4 40 15 40 10 0 15 10 15 30 0 20 5 30 15 30 8 0 17
14 21 35 3 20 12 35 20 35 8 0 14 7 14 15 0 8 6 15 14 15 7 0 16 9 19 20 3 11
12 20 21 20 11 0 16 9 16 29 0 20 6 30 20 34 11 3 20 12 20 21 0 11 9 16 29
16 20 0 30 6 34 20 3 11 12 20 21 20 9 0 16 7 16 15 0 8 7 15 15 15 8 0 15 7
15 15 0 10 11 15 35 15 24 0 35 5 35 15 0 8 14 17 35 21 19 3 35 12 35 19 0 7
19 14 46 18 26 2 50 10 53 16 4 6 31 14 59 18 34 4 52 10 52 19 0 22 328 20
336 -1 4 -11 21 -15 55 -15 37 0 49 4 49 15 0 8 9 15 20 15 11 0 20 7 20 15 0
8 7 15 15 15 12 0 15 14 15 63 0 76 -8 107 -26 107 -8 0 -14 6 -14 14 0 18
-31 26 -107 26 -49 0 -63 3 -63 15 0 13 -20 15 -120 15 -100 0 -120 -2 -120
-15z"/>
<path d="M4143 7393 c-38 -3 -53 -8 -53 -19 0 -10 -12 -14 -45 -14 -33 0 -45
-4 -45 -15 0 -8 -9 -15 -20 -15 -11 0 -23 -6 -26 -14 -3 -8 -19 -18 -35 -21
-16 -4 -29 -13 -29 -21 0 -8 -9 -14 -20 -14 -11 0 -20 -6 -20 -14 0 -8 -13
-17 -30 -21 -16 -4 -30 -13 -30 -21 0 -8 -7 -14 -15 -14 -8 0 -17 -14 -21 -35
-3 -20 -12 -35 -20 -35 -8 0 -14 -6 -14 -14 0 -7 -9 -16 -20 -19 -15 -4 -20
-14 -20 -36 0 -20 -5 -31 -14 -31 -9 0 -15 -16 -19 -46 -2 -26 -9 -49 -15 -53
-27 -17 -24 -141 4 -141 8 0 14 -9 14 -20 0 -11 7 -20 15 -20 8 0 15 -7 15
-15 0 -12 14 -15 70 -15 63 0 70 2 70 20 0 11 6 20 14 20 8 0 17 14 21 30 4
17 13 30 21 30 10 0 14 13 14 50 0 38 4 50 15 50 8 0 15 9 15 20 0 11 6 20 14
20 8 0 17 13 21 29 5 22 14 31 36 36 16 4 29 13 29 21 0 8 9 14 20 14 13 0 20
7 20 20 0 16 7 20 35 20 24 0 35 5 35 15 0 13 24 15 155 15 148 0 155 1 155
20 0 11 7 20 15 20 8 0 15 7 15 15 0 8 7 15 15 15 12 0 15 14 15 70 0 56 -3
70 -15 70 -8 0 -15 7 -15 15 0 8 -7 15 -15 15 -8 0 -15 7 -15 15 0 11 -11 15
-42 15 -24 0 -79 2 -123 4 -44 2 -104 2 -132 -1z"/>
<path d="M4230 6865 c0 -8 -6 -15 -12 -15 -16 0 -58 -44 -58 -59 0 -6 -7 -11
-15 -11 -11 0 -15 -12 -15 -50 0 -38 4 -50 15 -50 8 0 15 -9 15 -20 0 -11 7
-20 15 -20 8 0 15 -7 15 -15 0 -12 15 -15 75 -15 60 0 75 3 75 15 0 8 7 15 15
15 8 0 15 7 15 15 0 8 7 15 15 15 12 0 15 13 15 55 0 40 -4 55 -14 55 -7 0
-16 14 -20 30 -4 24 -12 32 -36 36 -16 4 -30 13 -30 20 0 9 -12 14 -35 14 -24
0 -35 -5 -35 -15z"/>
</g>
</svg>
