<svg width="23" height="24" viewBox="0 0 23 24" fill="none" xmlns="http://www.w3.org/2000/svg">
<path d="M9.5636 4.90575H8.45047C8.17702 4.90655 7.9102 4.98942 7.68493 5.14352C7.45967 5.29762 7.28648 5.51575 7.18804 5.76935L6.60432 7.26715L4.59527 8.40065L2.99345 8.15775C2.72674 8.12177 2.45529 8.16541 2.21358 8.28314C1.97187 8.40088 1.77082 8.58738 1.63599 8.81896L1.09301 9.76351C0.953869 9.99879 0.889764 10.2705 0.909152 10.5427C0.92854 10.8149 1.03051 11.0749 1.2016 11.2883L2.2197 12.5432V14.8102L1.22875 16.0651C1.05766 16.2786 0.955689 16.5385 0.936301 16.8108C0.916913 17.083 0.981018 17.3547 1.12016 17.59L1.66314 18.5344C1.79798 18.766 1.99902 18.9526 2.24071 19.0703C2.48242 19.188 2.7539 19.2317 3.02061 19.1958L4.62243 18.9529L6.60432 20.0863L7.18804 21.5841C7.28648 21.8376 7.45967 22.0559 7.68493 22.21C7.9102 22.364 8.17702 22.4469 8.45047 22.4477H9.59074C9.86419 22.4469 10.131 22.364 10.3563 22.21C10.5816 22.0559 10.7548 21.8376 10.8532 21.5841L11.4369 20.0863L13.4188 18.9529L15.0206 19.1958C15.2873 19.2317 15.5588 19.188 15.8005 19.0703C16.0422 18.9526 16.2433 18.766 16.3781 18.5344L16.9211 17.59C17.0603 17.3547 17.1243 17.083 17.105 16.8108C17.0855 16.5385 16.9836 16.2786 16.8125 16.0651L15.7944 14.8102V13.3485M6.2921 13.6767C6.2921 14.2105 6.45134 14.7323 6.74966 15.1761C7.04798 15.6199 7.47198 15.9658 7.96807 16.1701C8.46416 16.3743 9.01004 16.4278 9.53669 16.3236C10.0633 16.2195 10.5471 15.9625 10.9268 15.5851C11.3065 15.2076 11.5651 14.7267 11.6698 14.2032C11.7746 13.6797 11.7208 13.1371 11.5153 12.644C11.3098 12.1508 10.9618 11.7293 10.5154 11.4328C10.0689 11.1362 9.544 10.978 9.00703 10.978C8.28699 10.978 7.59644 11.2623 7.08729 11.7684C6.57814 12.2745 6.2921 12.961 6.2921 13.6767ZM13.0969 6.47076C12.5994 6.38473 12.5994 5.67484 13.0969 5.5888C14.8992 5.27714 16.3326 3.91257 16.7237 2.1362L16.7537 2.00003C16.8615 1.5113 17.5614 1.50825 17.6734 1.99604L17.7098 2.15472C18.1155 3.92271 19.5493 5.27575 21.3467 5.58657C21.8467 5.67304 21.8467 6.38654 21.3467 6.47301C19.5493 6.78383 18.1155 8.13686 17.7098 9.90486L17.6734 10.0635C17.5614 10.5513 16.8615 10.5483 16.7537 10.0595L16.7237 9.92338C16.3326 8.14701 14.8992 6.78244 13.0969 6.47076Z" stroke="#8C95AA" stroke-width="1.66527" stroke-linecap="round" stroke-linejoin="round"/>
</svg>
