<svg width="24" height="24" viewBox="0 0 24 24" fill="none" xmlns="http://www.w3.org/2000/svg">
<path d="M22.7217 20.5766C22.7217 18.1129 22.236 15.6734 21.2925 13.3972C20.349 11.1211 18.966 9.0529 17.2225 7.31081C15.4791 5.56872 13.4094 4.18681 11.1315 3.24399C8.85356 2.30118 6.41213 1.81592 3.94653 1.81592M4.33836 9.58084C5.73195 9.58084 7.11189 9.85512 8.3994 10.388C9.6869 10.9209 10.8568 11.702 11.8422 12.6867C12.8276 13.6713 13.6093 14.8403 14.1426 16.1268C14.6759 17.4134 14.9504 18.7922 14.9504 20.1848M4.3547 22.6318C5.70719 22.6318 6.80361 21.5362 6.80361 20.1848C6.80361 18.8333 5.70719 17.7377 4.3547 17.7377C3.00219 17.7377 1.90576 18.8333 1.90576 20.1848C1.90576 21.5362 3.00219 22.6318 4.3547 22.6318Z" stroke="#8C95AA" stroke-width="2.08159" stroke-linecap="round" stroke-linejoin="round"/>
</svg>
