<svg width="59" height="59" viewBox="0 0 59 59" fill="none" xmlns="http://www.w3.org/2000/svg">
<path fill-rule="evenodd" clip-rule="evenodd" d="M21.2958 3.728C24.8242 1.52095 29.0026 0.590212 33.1342 1.09101C37.2658 1.59181 41.1008 3.49387 44 6.48001C46.6313 9.19071 48.3472 12.646 48.9243 16.3607C51.6925 17.2711 54.1063 19.0512 55.7956 21.4512C57.7113 24.1724 58.5625 27.5016 58.1881 30.8084C57.8141 34.1151 56.2403 37.1698 53.7648 39.3942C52.2662 40.7409 50.5001 41.7266 48.6012 42.2991C47.2428 42.7089 45.8097 41.9396 45.3999 40.5813C44.9905 39.223 45.7595 37.7899 47.1179 37.3803C48.2996 37.024 49.3986 36.4107 50.3308 35.5727C51.8712 34.1887 52.8503 32.2881 53.0833 30.2306C53.3159 28.1731 52.7866 26.1017 51.5946 24.4085C50.4027 22.7153 48.6312 21.518 46.6156 21.0431C46.5671 21.0316 46.5182 21.0187 46.4701 21.0043C45.8191 20.81 45.2375 20.4336 44.7932 19.9194C44.3493 19.4052 44.0616 18.7747 43.9642 18.1023C43.9576 18.0575 43.9523 18.0124 43.9482 17.9673C43.6769 14.993 42.3937 12.2016 40.3135 10.0586C38.2331 7.91571 35.481 6.5507 32.516 6.19131C29.551 5.83193 26.5525 6.49986 24.0203 8.08373C21.4882 9.66756 19.5756 12.0716 18.6015 14.895C18.5671 14.9946 18.5266 15.0921 18.4802 15.1868C18.1875 15.7846 17.7298 16.2862 17.1612 16.6324C16.6372 16.9513 16.0392 17.1259 15.4278 17.14C14.0995 17.2385 12.8026 17.593 11.6085 18.1842C10.3929 18.786 9.30782 19.6214 8.4151 20.6426C6.6122 22.705 5.70247 25.3992 5.88599 28.1324C6.0695 30.8656 7.33123 33.414 9.39368 35.2169C10.1709 35.8963 11.0377 36.4488 11.9625 36.8638C13.2569 37.4446 13.8353 38.9648 13.2545 40.2592C12.6736 41.5535 11.1535 42.1318 9.85911 41.5511C8.47417 40.9297 7.17599 40.1022 6.01237 39.085C2.92404 36.3853 1.03467 32.5693 0.759872 28.4766C0.485074 24.3839 1.84736 20.3496 4.54705 17.2613C5.88381 15.7321 7.50866 14.4812 9.32882 13.58C10.8527 12.8255 12.4885 12.3285 14.1699 12.1068C15.62 8.65459 18.1049 5.72395 21.2958 3.728ZM29.4999 31.7846C31.2024 31.7846 32.5825 33.1647 32.5825 34.8672V42.0599H39.7752C41.4777 42.0599 42.8578 43.4401 42.8578 45.1425C42.8578 46.8449 41.4777 48.2251 39.7752 48.2251H32.5825V55.4178C32.5825 57.1202 31.2024 58.5003 29.4999 58.5003C27.7975 58.5003 26.4173 57.1202 26.4173 55.4178V48.2251H19.2246C17.5222 48.2251 16.142 46.8449 16.142 45.1425C16.142 43.4401 17.5222 42.0599 19.2246 42.0599H26.4173V34.8672C26.4173 33.1647 27.7975 31.7846 29.4999 31.7846Z" fill="#ABABAB"/>
</svg>
