<svg width="33" height="34" viewBox="0 0 33 34" fill="none" xmlns="http://www.w3.org/2000/svg">
<path fill-rule="evenodd" clip-rule="evenodd" d="M0.299678 4.41567C0.299678 4.15348 0.428395 3.74914 0.993282 3.22215C1.56043 2.69309 2.46126 2.1488 3.69761 1.66097C6.16156 0.688763 9.66607 0.0551147 13.6115 0.0551147C17.5569 0.0551147 21.0614 0.688763 23.5254 1.66097C24.7618 2.1488 25.6625 2.69309 26.2296 3.22215C26.7946 3.74914 26.9233 4.15348 26.9233 4.41567C26.9233 4.67788 26.7946 5.08222 26.2296 5.60921C25.6625 6.13827 24.7618 6.68256 23.5254 7.17039C21.0614 8.1426 17.5569 8.77625 13.6115 8.77625C9.66607 8.77625 6.16156 8.1426 3.69761 7.17039C2.46126 6.68256 1.56043 6.13827 0.993282 5.60921C0.428395 5.08222 0.299678 4.67788 0.299678 4.41567ZM27.2234 8.56689C26.4625 9.0823 25.5741 9.52947 24.6067 9.91119C21.7196 11.0504 17.8316 11.7227 13.6115 11.7227C9.39136 11.7227 5.50337 11.0504 2.61617 9.91119C1.64892 9.52952 0.760634 9.08242 0 8.5671V14.6589C0.0926368 14.8781 0.277813 15.1488 0.626782 15.4661C1.21232 15.9985 2.14176 16.5457 3.41515 17.0355C5.93954 18.0067 9.52101 18.6403 13.5515 18.6466C13.6558 18.2716 13.8085 17.9036 14.012 17.5509C15.2237 15.4506 17.8075 14.6354 19.9784 15.5843C20.2413 13.2296 22.2385 11.3989 24.6633 11.3989C25.6071 11.3989 26.4861 11.6762 27.2234 12.1538V8.56689ZM13.6116 21.593L13.6929 21.5929C14.0067 22.4137 14.5505 23.1516 15.2959 23.7003C13.6615 24.9032 12.996 27.0161 13.6003 28.9177C6.08768 28.9148 0 26.3024 0 23.0838V18.6473C0.703278 19.0769 1.49976 19.4556 2.35724 19.7855C5.3099 20.9214 9.2893 21.593 13.6116 21.593ZM26.4314 16.1132C26.4314 15.1368 25.6399 14.3453 24.6635 14.3453C23.687 14.3453 22.8956 15.1368 22.8956 16.1132V17.857C21.9858 18.1319 21.1658 18.6135 20.49 19.2472L18.979 18.3754C18.1333 17.8875 17.0522 18.1776 16.5642 19.0233C16.0763 19.869 16.3664 20.9501 17.2121 21.438L18.72 22.308C18.6157 22.7552 18.5605 23.2213 18.5605 23.7003C18.5605 24.1793 18.6157 24.6453 18.72 25.0925L17.2121 25.9625C16.3664 26.4504 16.0763 27.5314 16.5642 28.3772C17.0522 29.2229 18.1333 29.5131 18.979 29.0251L20.49 28.1532C21.1658 28.7871 21.9858 29.2686 22.8956 29.5435V31.2873C22.8956 32.2636 23.687 33.0552 24.6635 33.0552C25.6399 33.0552 26.4314 32.2636 26.4314 31.2873V29.5437C27.3412 29.2689 28.1615 28.7873 28.8376 28.1535L30.3485 29.0251C31.1942 29.5131 32.2752 29.2229 32.7631 28.3772C33.2511 27.5314 32.9609 26.4504 32.1154 25.9625L30.6075 25.0927C30.712 24.6453 30.7671 24.1793 30.7671 23.7003C30.7671 23.2212 30.712 22.7551 30.6075 22.3078L32.1154 21.438C32.9609 20.9501 33.2511 19.869 32.7631 19.0233C32.2752 18.1776 31.1942 17.8875 30.3485 18.3754L28.8376 19.2471C28.1615 18.6133 27.3412 18.1316 26.4314 17.8568V16.1132ZM22.4449 22.4159C22.4287 22.444 22.4118 22.4715 22.3943 22.4984C22.204 22.857 22.0962 23.266 22.0962 23.7003C22.0962 24.1345 22.204 24.5435 22.3943 24.902C22.4118 24.9289 22.4286 24.9565 22.4449 24.9845C22.4603 25.0112 22.4749 25.0383 22.4888 25.0654C22.9417 25.7855 23.7426 26.2649 24.6555 26.2678H24.6635H24.6718C25.584 26.2652 26.384 25.7867 26.8373 25.0677C26.8517 25.0399 26.8667 25.0121 26.8825 24.9845C26.8993 24.9555 26.9167 24.9272 26.9346 24.8997C27.1241 24.5416 27.2314 24.1334 27.2314 23.7003C27.2314 23.267 27.1241 22.8588 26.9346 22.5008C26.9165 22.4732 26.8993 22.4449 26.8825 22.4159C26.8667 22.3885 26.8517 22.3607 26.8375 22.3328C26.3828 21.6117 25.5793 21.1326 24.6638 21.1326C23.7473 21.1326 22.9431 21.6128 22.4887 22.3353C22.4749 22.3624 22.4603 22.3893 22.4449 22.4159Z" fill="black"/>
</svg>
