<svg width="23" height="23" viewBox="0 0 23 23" fill="none" xmlns="http://www.w3.org/2000/svg">
<path d="M11.3137 21.8159V15.411M21.7216 11.3119C21.7232 11.0896 21.6784 10.8695 21.5902 10.6655C21.5019 10.4615 21.3722 10.2781 21.2092 10.127L11.3137 1L1.41819 10.127C1.25522 10.2781 1.12551 10.4615 1.03729 10.6655C0.949075 10.8695 0.904295 11.0896 0.905798 11.3119V20.2147C0.905798 20.6393 1.0745 21.0467 1.37478 21.3469C1.67507 21.6471 2.08235 21.8159 2.50701 21.8159H20.1204C20.545 21.8159 20.9524 21.6471 21.2526 21.3469C21.553 21.0467 21.7216 20.6393 21.7216 20.2147V11.3119Z" stroke="#8C95AA" stroke-width="1.66527" stroke-linecap="round" stroke-linejoin="round"/>
</svg>
